<?xml version="1.0" standalone="no"?>
<!DOCTYPE svg PUBLIC "-//W3C//DTD SVG 20010904//EN"
 "http://www.w3.org/TR/2001/REC-SVG-20010904/DTD/svg10.dtd">
<svg version="1.0" xmlns="http://www.w3.org/2000/svg"
 width="2090.000000pt" height="526.000000pt" viewBox="0 0 2090.000000 526.000000"
 preserveAspectRatio="xMidYMid meet">

<g transform="translate(0.000000,526.000000) scale(0.100000,-0.100000)"
fill="#000000" stroke="none">
<path d="M0 2630 l0 -2630 10450 0 10450 0 0 2630 0 2630 -10450 0 -10450 0 0
-2630z m11391 1629 c200 -20 338 -58 504 -139 55 -27 112 -57 127 -67 26 -16
30 -16 85 2 83 27 241 32 337 11 70 -16 224 -85 308 -138 179 -113 415 -399
489 -591 11 -29 31 -66 43 -82 22 -28 24 -28 48 -13 13 9 40 42 59 73 178 294
332 467 530 595 104 67 157 82 294 84 99 1 127 -2 157 -18 66 -32 116 -87 157
-170 l38 -79 39 69 c87 158 191 264 325 332 151 76 278 87 462 42 134 -33 189
-60 372 -179 56 -37 226 -210 314 -319 91 -112 170 -230 208 -308 16 -33 44
-86 62 -119 19 -33 49 -102 67 -153 19 -51 40 -105 48 -120 7 -15 28 -70 46
-122 18 -52 38 -101 44 -109 6 -7 51 -41 101 -74 93 -62 236 -202 277 -270 13
-21 36 -58 51 -82 97 -151 152 -372 150 -600 -2 -351 -171 -672 -435 -825
-246 -143 -510 -142 -773 3 l-70 38 -120 -60 c-143 -72 -203 -86 -355 -84
-173 2 -274 34 -455 141 -172 102 -299 257 -391 479 -66 160 -79 224 -78 385
l1 136 -36 7 c-50 9 -130 47 -169 80 -18 15 -49 53 -69 84 -41 64 -103 189
-103 208 0 17 -17 17 -27 1 -8 -14 -84 -83 -142 -131 l-34 -28 51 -107 c80
-171 117 -331 117 -512 -1 -196 -34 -344 -113 -495 -51 -97 -193 -239 -283
-283 -163 -79 -339 -81 -510 -5 -63 28 -185 120 -254 192 l-58 59 -86 -70
c-158 -127 -270 -191 -469 -267 -252 -97 -470 -129 -755 -111 -292 19 -523
145 -613 333 -42 88 -54 155 -43 236 19 134 117 299 255 431 46 43 84 81 84
83 0 2 -64 7 -142 11 -79 3 -159 9 -179 12 l-36 6 -6 -118 c-9 -164 -21 -254
-52 -359 -36 -129 -94 -239 -158 -306 -62 -63 -103 -86 -187 -101 -74 -14
-169 7 -247 54 -79 48 -191 145 -250 218 -39 47 -166 229 -187 267 -1 1 -53
-48 -116 -108 -284 -271 -588 -399 -952 -399 -207 0 -421 52 -628 152 -163 79
-254 141 -412 281 l-76 68 -89 -75 c-267 -229 -560 -380 -868 -450 -291 -66
-662 -48 -893 43 -197 78 -371 207 -491 366 -57 75 -116 195 -147 300 -22 73
-25 288 -6 382 24 120 85 241 169 336 32 35 43 67 24 67 -16 0 -216 166 -260
216 -109 124 -208 316 -246 477 -46 194 -21 417 70 614 42 90 81 149 164 242
81 92 152 149 256 206 166 91 314 133 500 141 362 17 666 -97 905 -336 69 -69
94 -103 133 -180 53 -107 82 -220 72 -288 -7 -49 -9 -48 87 -56 65 -6 68 -5
72 16 35 193 100 355 202 511 46 70 168 193 231 234 97 62 183 86 303 86 123
0 181 -17 330 -97 125 -67 268 -208 392 -386 48 -69 94 -134 101 -145 13 -18
15 -13 27 55 45 263 98 389 210 499 91 89 167 125 280 129 163 7 322 -58 467
-191 l42 -38 58 11 c126 25 269 -32 409 -162 l86 -80 82 80 c166 164 230 212
380 283 183 86 372 132 581 142 33 2 65 4 71 5 7 1 58 -3 115 -9z"/>
<path d="M11145 4144 c-103 -12 -278 -55 -375 -94 -172 -68 -347 -199 -479
-359 l-36 -44 36 -66 c19 -36 34 -74 31 -84 -2 -9 -17 -24 -34 -33 -27 -14
-32 -14 -54 0 -13 9 -75 78 -138 154 -124 148 -183 201 -261 238 -45 21 -115
33 -115 19 0 -3 7 -16 15 -29 11 -16 29 -26 57 -30 65 -11 133 -54 206 -131
68 -71 106 -132 100 -162 -2 -9 -18 -23 -36 -30 -33 -13 -33 -13 -94 44 -33
32 -56 49 -50 38 20 -35 102 -222 102 -231 0 -5 7 -22 15 -38 21 -40 81 -257
94 -336 30 -196 34 -258 28 -468 -7 -242 -23 -365 -66 -509 -52 -174 -135
-369 -205 -483 -20 -32 -36 -63 -36 -69 0 -32 117 -214 212 -329 93 -112 255
-222 328 -222 40 0 99 30 140 72 81 81 141 285 160 543 12 160 21 208 46 240
14 18 25 20 147 17 271 -6 468 -20 493 -37 29 -19 32 -59 7 -95 -20 -29 -14
-24 -123 -120 -47 -41 -107 -97 -133 -125 -119 -121 -168 -311 -117 -448 33
-88 140 -178 270 -226 360 -134 910 -35 1280 229 52 38 117 91 145 119 l49 51
-27 54 c-40 78 -96 257 -113 356 -8 47 -14 124 -14 173 0 101 8 93 -129 127
-103 26 -222 35 -325 25 -71 -6 -79 -9 -89 -33 -19 -42 -68 -123 -101 -167
-38 -49 -178 -217 -221 -265 -127 -141 -138 -150 -169 -150 -59 0 -74 47 -32
97 13 15 43 53 67 84 24 31 93 114 152 185 118 140 168 221 198 317 48 153 4
271 -96 259 -11 -2 -105 -28 -210 -59 l-190 -56 -175 7 c-222 9 -271 14 -345
32 -76 19 -103 43 -89 81 9 28 10 28 89 26 309 -9 524 -7 580 6 101 22 247 72
317 107 62 31 174 110 256 181 l33 28 -49 75 c-74 113 -130 226 -187 380 -20
52 -42 110 -50 128 -21 47 -65 311 -65 390 0 83 15 179 40 251 14 42 16 59 7
69 -22 27 -166 91 -293 132 -164 52 -178 59 -182 92 -9 79 186 55 411 -50 48
-23 99 -50 114 -61 33 -27 37 -26 56 3 16 24 16 24 -62 65 -100 52 -260 105
-376 125 -96 17 -273 27 -340 20z m93 -60 c29 -20 28 -48 -4 -73 -32 -25 -61
-27 -92 -5 -31 22 -29 60 6 78 35 20 62 20 90 0z m254 -485 c65 -47 107 -129
130 -257 17 -92 16 -391 0 -467 -43 -192 -79 -277 -133 -309 -37 -22 -58 -20
-86 6 -29 27 -29 43 2 104 64 127 93 326 80 553 -7 135 -27 197 -83 269 -38
48 -47 79 -31 99 30 36 71 37 121 2z"/>
<path d="M9004 4050 c-28 -16 -63 -44 -78 -62 -15 -18 -34 -41 -41 -50 -26
-32 -48 -83 -77 -178 -25 -81 -31 -121 -38 -270 -11 -214 3 -419 29 -421 9 0
57 0 106 1 103 2 295 -24 337 -46 15 -8 31 -15 35 -17 3 -1 7 50 9 113 5 271
23 422 61 525 39 106 38 101 7 138 -56 65 -147 117 -248 143 -108 27 -130 59
-67 97 75 44 236 -3 363 -107 48 -39 58 -43 68 -30 17 19 -12 50 -100 109
-139 91 -269 111 -366 55z"/>
<path d="M15148 4070 c-50 -5 -89 -17 -152 -48 -70 -35 -96 -55 -155 -121
-158 -175 -241 -412 -263 -754 l-12 -178 45 -47 c58 -60 99 -122 99 -148 0
-40 -50 -65 -95 -48 -8 4 -29 26 -46 50 -32 47 -73 89 -101 105 -15 8 -21 3
-34 -28 -53 -123 -108 -216 -222 -378 -22 -31 -23 -37 -12 -96 22 -122 111
-264 190 -304 49 -25 52 -25 86 -9 36 17 74 65 113 141 28 57 63 80 97 64 32
-14 44 -47 31 -91 -12 -46 -44 -108 -72 -142 -76 -90 -67 -385 18 -598 93
-234 271 -408 510 -501 80 -30 83 -31 226 -27 133 4 153 7 220 34 119 47 248
168 301 281 11 24 29 63 40 87 27 57 50 191 50 288 0 84 -31 258 -54 304 -8
16 -29 60 -48 97 -65 136 -225 320 -318 367 -60 31 -74 66 -40 100 31 31 70
25 136 -21 246 -173 398 -411 449 -707 39 -220 -9 -448 -132 -637 l-52 -80 22
-17 c44 -34 183 -87 262 -98 166 -25 323 20 467 135 237 187 351 582 269 930
-23 98 -60 198 -96 260 -12 22 -33 58 -45 79 -34 61 -139 174 -205 221 -70 50
-134 82 -225 115 -80 28 -100 45 -100 81 0 31 9 39 54 49 37 7 37 23 1 115
-137 348 -243 538 -417 747 -263 316 -518 455 -790 428z m219 -85 c38 -14 97
-42 133 -62 181 -99 400 -321 522 -530 28 -49 61 -101 73 -118 12 -16 55 -95
95 -175 83 -168 97 -227 59 -254 -30 -21 -62 -20 -82 2 -8 9 -40 67 -70 127
-30 61 -69 137 -87 170 -18 33 -47 89 -65 123 -19 35 -42 74 -52 85 -10 12
-29 38 -42 57 -122 177 -312 365 -435 427 -78 40 -125 53 -216 64 -116 13
-149 45 -94 88 41 32 171 30 261 -4z m-347 -75 c27 -27 25 -56 -5 -76 -33 -21
-72 -11 -87 22 -11 24 -9 29 15 50 34 29 51 30 77 4z m322 -329 c32 -13 84
-66 114 -117 80 -137 138 -410 104 -498 -21 -56 -92 -59 -114 -3 -8 18 -17 68
-21 112 -9 105 -42 249 -70 305 -13 25 -46 67 -74 93 -28 27 -51 54 -51 62 0
18 48 55 71 55 10 0 28 -4 41 -9z"/>
<path d="M5690 4053 c-390 -59 -674 -297 -780 -653 -35 -116 -33 -299 4 -444
54 -208 183 -394 371 -536 98 -74 177 -114 310 -155 199 -62 462 -60 645 3
172 60 256 118 418 288 118 124 129 129 176 83 19 -18 19 -21 3 -96 -43 -204
-1 -385 123 -528 58 -67 64 -82 46 -109 -33 -52 -79 -38 -187 56 -73 64 -196
151 -254 180 -65 33 -164 59 -182 50 -49 -26 -211 -72 -290 -83 -108 -14 -360
-5 -453 16 -36 9 -103 27 -149 42 l-85 26 -34 -39 c-61 -70 -94 -125 -129
-213 -28 -71 -35 -104 -40 -193 -9 -168 29 -308 123 -449 127 -192 310 -321
559 -395 157 -47 462 -55 643 -18 116 24 303 89 429 149 142 68 344 203 448
298 l79 74 -56 74 c-178 237 -334 560 -382 791 -8 40 -24 108 -35 150 -31 119
-48 448 -33 622 7 75 10 141 7 146 -4 6 -40 10 -82 10 l-76 0 -81 -83 c-73
-76 -90 -88 -171 -121 -49 -21 -121 -44 -158 -52 -89 -18 -254 -18 -354 1 -43
8 -86 15 -95 15 -14 0 -92 -50 -274 -177 -52 -37 -93 -42 -117 -15 -24 27 -22
35 26 94 54 67 58 73 67 114 10 45 -5 111 -36 151 -31 41 -29 83 5 99 29 15
65 4 136 -41 119 -75 306 -133 455 -142 213 -12 392 76 469 231 41 83 28 228
-31 337 -102 192 -339 360 -590 419 -70 16 -260 42 -285 39 -4 -1 -51 -8 -103
-16z m350 -72 c88 -21 211 -66 277 -100 53 -26 205 -149 252 -202 36 -42 64
-84 99 -153 11 -21 13 -53 10 -133 -4 -96 -7 -106 -30 -130 -54 -54 -98 -7
-98 104 0 245 -266 459 -644 518 -91 14 -119 15 -189 5 -188 -28 -247 -23
-247 19 0 35 71 76 160 91 84 15 318 4 410 -19z m-638 -108 c22 -20 23 -42 2
-71 -21 -30 -59 -28 -89 4 -30 33 -31 38 -3 64 26 24 65 26 90 3z"/>
<path d="M7660 4014 c-141 -38 -258 -151 -354 -341 -33 -67 -136 -351 -136
-377 0 -6 46 -26 103 -45 329 -108 554 -308 667 -596 47 -120 63 -215 63 -375
0 -188 -16 -261 -115 -505 -29 -73 -93 -179 -161 -267 -53 -69 -57 -79 -45
-96 23 -33 219 -193 310 -252 99 -66 266 -139 383 -169 118 -30 205 -41 348
-41 104 0 147 5 225 25 216 55 375 141 551 299 69 62 171 180 171 199 0 4 -16
43 -36 85 -48 103 -114 269 -114 288 0 8 -9 31 -19 52 -24 46 -121 384 -121
420 0 15 -9 54 -19 87 -18 57 -54 299 -67 448 -5 59 -8 67 -22 61 -23 -11 -75
-10 -232 5 -153 15 -247 10 -370 -19 -172 -41 -260 -79 -379 -165 -61 -45
-141 -22 -141 39 0 56 168 165 350 227 52 18 99 36 104 40 9 8 -9 64 -81 243
-57 140 -62 150 -149 283 -143 216 -250 325 -387 394 -133 68 -220 82 -327 53z
m198 -42 c69 -27 124 -67 227 -169 132 -130 214 -249 332 -482 83 -164 94
-202 68 -231 -18 -20 -60 -26 -82 -12 -18 11 -78 115 -104 179 -37 92 -148
265 -255 401 -86 108 -146 161 -248 218 -49 27 -91 55 -94 63 -8 20 38 51 75
51 18 0 55 -8 81 -18z"/>
<path d="M12208 3953 c-52 -9 -23 -43 37 -43 107 -1 290 -77 420 -175 151
-114 323 -321 380 -459 15 -35 15 -37 -9 -61 -30 -29 -43 -31 -76 -8 -31 21
-45 38 -66 81 -21 44 -103 150 -179 230 -97 104 -249 210 -361 252 -23 9 -21
5 17 -51 57 -84 116 -213 135 -296 32 -138 34 -155 34 -252 0 -212 -74 -433
-201 -600 l-40 -53 28 -32 c132 -148 257 -248 393 -316 47 -23 93 -49 103 -58
25 -22 22 -67 -6 -89 -13 -10 -29 -29 -36 -41 -12 -22 -41 -110 -41 -124 0 -3
24 -20 53 -36 74 -42 160 -138 187 -209 56 -147 49 -281 -20 -420 l-42 -84 38
-46 c119 -145 226 -216 372 -245 68 -14 171 2 255 41 119 53 237 221 289 408
71 260 5 660 -137 826 -53 62 -47 79 60 162 50 38 124 104 166 147 l76 77 6
128 c9 175 21 218 97 348 16 28 43 93 60 145 17 52 39 122 50 155 16 49 20 87
20 207 0 133 -2 152 -22 194 -19 38 -33 51 -81 75 -32 17 -61 37 -64 46 -9 23
41 63 79 63 45 0 115 -39 155 -85 65 -75 65 -75 61 -308 -3 -209 -4 -213 -35
-299 -30 -82 -31 -88 -13 -88 15 0 23 15 39 68 31 105 53 194 56 227 1 17 5
64 9 105 14 151 -38 322 -117 385 -37 28 -44 30 -125 30 -78 0 -94 -3 -153
-32 -81 -40 -246 -177 -317 -264 -128 -156 -232 -315 -232 -354 0 -7 17 -15
38 -19 52 -8 179 -72 192 -97 8 -14 7 -27 -2 -47 -17 -36 -62 -40 -125 -12
-182 80 -360 75 -532 -16 -35 -19 -74 -34 -86 -34 -27 0 -55 29 -55 57 0 29
67 86 139 118 33 15 61 30 61 34 0 3 -9 31 -21 61 -62 163 -206 355 -369 493
-145 122 -288 185 -435 192 -44 2 -92 1 -107 -2z"/>
<path d="M12025 3850 c-18 -20 -17 -21 43 -82 98 -101 143 -170 194 -296 57
-141 71 -223 64 -362 -7 -156 -23 -218 -88 -342 -43 -82 -49 -100 -38 -113 12
-14 15 -13 36 6 30 28 98 159 125 240 17 53 22 97 26 254 l5 190 -37 100 c-64
173 -99 227 -232 362 -34 35 -65 63 -71 63 -5 0 -17 -9 -27 -20z"/>
<path d="M9562 3780 c-10 -17 -9 -25 5 -46 l16 -26 14 26 c11 21 11 29 1 46
-16 25 -20 25 -36 0z"/>
<path d="M11928 3658 c-21 -70 -15 -287 12 -383 60 -219 154 -469 174 -462 19
6 56 138 66 237 18 171 -3 308 -67 434 -40 80 -144 216 -165 216 -4 0 -13 -19
-20 -42z"/>
<path d="M9668 3623 c-10 -2 -18 -6 -18 -7 0 -2 24 -52 54 -112 30 -60 61
-127 69 -149 9 -22 27 -71 42 -110 83 -218 153 -643 113 -683 -13 -13 -67 -16
-84 -4 -26 17 -46 100 -59 243 -5 61 -40 203 -80 334 -19 61 -37 124 -41 140
-8 33 -125 263 -157 309 -20 28 -21 28 -28 8 -5 -12 -18 -70 -30 -129 -18 -94
-21 -139 -20 -358 2 -259 15 -408 52 -585 11 -52 24 -120 29 -150 8 -49 34
-148 85 -335 9 -33 25 -80 35 -105 71 -177 123 -296 131 -304 12 -13 113 201
148 317 16 50 38 142 50 202 12 61 26 132 31 158 6 27 10 148 10 270 0 207 -2
230 -31 371 -17 83 -49 207 -71 276 -49 152 -181 413 -206 409 -4 -1 -15 -3
-24 -6z"/>
<path d="M7145 3132 c-13 -62 -21 -303 -13 -416 5 -67 18 -165 29 -220 10 -54
19 -107 19 -118 0 -28 107 -350 142 -428 61 -135 241 -414 262 -407 34 11 184
261 206 342 4 17 20 71 34 120 48 160 51 411 7 550 -71 225 -216 395 -442 519
-62 34 -198 86 -225 86 -7 0 -15 -12 -19 -28z"/>
<path d="M14267 2882 c-27 -28 -60 -96 -71 -147 l-7 -30 20 25 c26 33 96 169
89 175 -2 3 -16 -8 -31 -23z"/>
<path d="M12135 2360 c-33 -27 -79 -61 -102 -76 -24 -14 -43 -28 -43 -31 0 -3
19 -27 43 -53 43 -47 67 -103 67 -152 0 -14 3 -39 6 -55 l6 -30 156 -6 c87 -3
189 -13 227 -22 135 -30 125 -30 125 -3 0 14 6 45 14 71 13 43 12 47 -8 65
-11 11 -35 27 -52 35 -53 27 -206 151 -284 231 -41 42 -79 76 -85 75 -5 0 -37
-22 -70 -49z"/>
<path d="M6606 2324 c-26 -20 -44 -39 -40 -44 5 -4 35 -19 67 -33 l57 -26 0
38 c0 56 -11 101 -24 101 -6 0 -33 -17 -60 -36z"/>
<path d="M12743 1622 c8 -108 42 -254 74 -315 l26 -52 24 50 c21 43 23 61 20
135 -2 63 -9 96 -26 130 -24 46 -98 130 -115 130 -5 0 -7 -32 -3 -78z"/>
</g>
</svg>
